<svg viewBox="0 0 397 389" fill="none" xmlns="http://www.w3.org/2000/svg">
    <circle cx="150" cy="150" r="137.5" stroke-width="25"/>
    <line x1="261.839" y1="244.161" x2="304.839" y2="287.161" stroke-width="25"/>
    <line x1="305.82" y1="289" x2="374" y2="357.18" stroke-width="45" stroke-linecap="round"/>
    <path d="M135.6 195L127.2 170.28H93.36L84.96 195H74.76L104.04 111.24H116.88L146.16 195H135.6ZM110.52 120.6H109.92L95.76 161.4H124.68L110.52 120.6ZM160.035 111.24H194.475C201.435 111.24 206.875 113.2 210.795 117.12C214.795 121.04 216.795 126.28 216.795 132.84C216.795 135.96 216.355 138.6 215.475 140.76C214.595 142.92 213.475 144.72 212.115 146.16C210.755 147.52 209.275 148.56 207.675 149.28C206.075 149.92 204.595 150.36 203.235 150.6V151.32C204.755 151.4 206.435 151.8 208.275 152.52C210.195 153.24 211.995 154.4 213.675 156C215.355 157.52 216.755 159.52 217.875 162C219.075 164.4 219.675 167.32 219.675 170.76C219.675 174.2 219.115 177.4 217.995 180.36C216.955 183.32 215.475 185.88 213.555 188.04C211.635 190.2 209.355 191.92 206.715 193.2C204.075 194.4 201.195 195 198.075 195H160.035V111.24ZM170.115 186.12H194.955C199.275 186.12 202.675 185.04 205.155 182.88C207.635 180.64 208.875 177.4 208.875 173.16V169.08C208.875 164.84 207.635 161.64 205.155 159.48C202.675 157.24 199.275 156.12 194.955 156.12H170.115V186.12ZM170.115 147.48H193.275C197.275 147.48 200.395 146.48 202.635 144.48C204.875 142.48 205.995 139.6 205.995 135.84V131.76C205.995 128 204.875 125.12 202.635 123.12C200.395 121.12 197.275 120.12 193.275 120.12H170.115V147.48Z"/>

    <style>
        line, circle { stroke: #000; }
        path { fill: #000; }
        @media (prefers-color-scheme: dark) {
            line, circle { stroke: #FFF; }
            path { fill: #FFF; }
        }
    </style>
</svg>
